<svg width="159" height="56" viewBox="0 0 159 56" fill="none" xmlns="http://www.w3.org/2000/svg">
<path d="M8.704 33.784H21.584V40H0.864V0.911999H8.704V33.784ZM40.3431 40.504C37.3565 40.504 34.6685 39.8507 32.2791 38.544C29.8898 37.2 28.0045 35.3147 26.6231 32.888C25.2791 30.4613 24.6071 27.6613 24.6071 24.488C24.6071 21.3147 25.2978 18.5147 26.6791 16.088C28.0978 13.6613 30.0205 11.7947 32.4471 10.488C34.8738 9.144 37.5805 8.472 40.5671 8.472C43.5538 8.472 46.2605 9.144 48.6871 10.488C51.1138 11.7947 53.0178 13.6613 54.3991 16.088C55.8178 18.5147 56.5271 21.3147 56.5271 24.488C56.5271 27.6613 55.7991 30.4613 54.3431 32.888C52.9245 35.3147 50.9831 37.2 48.5191 38.544C46.0925 39.8507 43.3671 40.504 40.3431 40.504ZM40.3431 33.672C41.7618 33.672 43.0871 33.336 44.3191 32.664C45.5885 31.9547 46.5965 30.9093 47.3431 29.528C48.0898 28.1467 48.4631 26.4667 48.4631 24.488C48.4631 21.5387 47.6791 19.28 46.1111 17.712C44.5805 16.1067 42.6951 15.304 40.4551 15.304C38.2151 15.304 36.3298 16.1067 34.7991 17.712C33.3058 19.28 32.5591 21.5387 32.5591 24.488C32.5591 27.4373 33.2871 29.7147 34.7431 31.32C36.2365 32.888 38.1031 33.672 40.3431 33.672ZM74.4301 8.472C76.7447 8.472 78.7794 8.93866 80.5341 9.872C82.2887 10.768 83.6701 11.944 84.6781 13.4V8.976H92.5741V40.224C92.5741 43.0987 91.9954 45.656 90.8381 47.896C89.6807 50.1733 87.9447 51.9653 85.6301 53.272C83.3154 54.616 80.5154 55.288 77.2301 55.288C72.8247 55.288 69.2034 54.2613 66.3661 52.208C63.5661 50.1547 61.9794 47.3547 61.6061 43.808H69.3901C69.8007 45.2267 70.6781 46.3467 72.0221 47.168C73.4034 48.0267 75.0647 48.456 77.0061 48.456C79.2834 48.456 81.1314 47.7653 82.5501 46.384C83.9687 45.04 84.6781 42.9867 84.6781 40.224V35.408C83.6701 36.864 82.2701 38.0773 80.4781 39.048C78.7234 40.0187 76.7074 40.504 74.4301 40.504C71.8167 40.504 69.4274 39.832 67.2621 38.488C65.0967 37.144 63.3794 35.2587 62.1101 32.832C60.8781 30.368 60.2621 27.5493 60.2621 24.376C60.2621 21.24 60.8781 18.4587 62.1101 16.032C63.3794 13.6053 65.0781 11.7387 67.2061 10.432C69.3714 9.12533 71.7794 8.472 74.4301 8.472ZM84.6781 24.488C84.6781 22.584 84.3047 20.96 83.5581 19.616C82.8114 18.2347 81.8034 17.1893 80.5341 16.48C79.2647 15.7333 77.9021 15.36 76.4461 15.36C74.9901 15.36 73.6461 15.7147 72.4141 16.424C71.1821 17.1333 70.1741 18.1787 69.3901 19.56C68.6434 20.904 68.2701 22.5093 68.2701 24.376C68.2701 26.2427 68.6434 27.8853 69.3901 29.304C70.1741 30.6853 71.1821 31.7493 72.4141 32.496C73.6834 33.2427 75.0274 33.616 76.4461 33.616C77.9021 33.616 79.2647 33.2613 80.5341 32.552C81.8034 31.8053 82.8114 30.76 83.5581 29.416C84.3047 28.0347 84.6781 26.392 84.6781 24.488ZM121.415 0.911999V40H113.575V0.911999H121.415ZM146.353 8.528C150.049 8.528 153.036 9.704 155.313 12.056C157.59 14.3707 158.729 17.6187 158.729 21.8V40H150.889V22.864C150.889 20.4 150.273 18.5147 149.041 17.208C147.809 15.864 146.129 15.192 144.001 15.192C141.836 15.192 140.118 15.864 138.849 17.208C137.617 18.5147 137.001 20.4 137.001 22.864V40H129.161V8.976H137.001V12.84C138.046 11.496 139.372 10.4507 140.977 9.704C142.62 8.92 144.412 8.528 146.353 8.528Z" fill="black"/>
</svg>
