<svg width="167" height="13" viewBox="0 0 167 13" fill="none" xmlns="http://www.w3.org/2000/svg">
<path opacity="0.5" d="M0.848 10C0.642667 10 0.484 9.94867 0.372 9.846C0.269333 9.734 0.218 9.57533 0.218 9.37V0.76C0.218 0.554666 0.269333 0.400666 0.372 0.298C0.484 0.186 0.642667 0.129999 0.848 0.129999H3.55C5.146 0.129999 6.378 0.55 7.246 1.39C8.114 2.23 8.548 3.45267 8.548 5.058C8.548 5.86067 8.436 6.57 8.212 7.186C7.99733 7.79267 7.67533 8.306 7.246 8.726C6.81667 9.146 6.294 9.46333 5.678 9.678C5.062 9.89267 4.35267 10 3.55 10H0.848ZM1.366 9.02H3.466C4.11933 9.02 4.684 8.936 5.16 8.768C5.64533 8.6 6.04667 8.35267 6.364 8.026C6.69067 7.69933 6.93333 7.28867 7.092 6.794C7.25067 6.29 7.33 5.71133 7.33 5.058C7.33 3.742 7.008 2.75733 6.364 2.104C5.72 1.44133 4.754 1.11 3.466 1.11H1.366V9.02ZM13.2826 10.126C12.62 10.126 12.046 9.98133 11.5606 9.692C11.0753 9.40267 10.6973 8.99667 10.4266 8.474C10.1653 7.942 10.0346 7.31667 10.0346 6.598C10.0346 6.05667 10.1093 5.57133 10.2586 5.142C10.408 4.70333 10.6273 4.33 10.9166 4.022C11.206 3.714 11.5466 3.48067 11.9386 3.322C12.34 3.154 12.788 3.07 13.2826 3.07C13.9453 3.07 14.5193 3.21467 15.0046 3.504C15.49 3.79333 15.8633 4.204 16.1246 4.736C16.3953 5.25867 16.5306 5.87933 16.5306 6.598C16.5306 7.13933 16.456 7.62467 16.3066 8.054C16.1573 8.48333 15.938 8.85667 15.6486 9.174C15.3593 9.482 15.014 9.72 14.6126 9.888C14.2206 10.0467 13.7773 10.126 13.2826 10.126ZM13.2826 9.216C13.7026 9.216 14.0713 9.11333 14.3886 8.908C14.706 8.70267 14.9486 8.404 15.1166 8.012C15.294 7.62 15.3826 7.14867 15.3826 6.598C15.3826 5.74867 15.1913 5.1 14.8086 4.652C14.4353 4.204 13.9266 3.98 13.2826 3.98C12.8533 3.98 12.48 4.08267 12.1626 4.288C11.8546 4.484 11.612 4.778 11.4346 5.17C11.2666 5.55267 11.1826 6.02867 11.1826 6.598C11.1826 7.438 11.374 8.08667 11.7566 8.544C12.1393 8.992 12.648 9.216 13.2826 9.216ZM18.7939 10.098C18.6073 10.098 18.4673 10.0467 18.3739 9.944C18.2806 9.84133 18.2339 9.69667 18.2339 9.51V3.672C18.2339 3.48533 18.2806 3.34533 18.3739 3.252C18.4673 3.14933 18.6026 3.098 18.7799 3.098C18.9573 3.098 19.0926 3.14933 19.1859 3.252C19.2886 3.34533 19.3399 3.48533 19.3399 3.672V4.876L19.1859 4.708C19.3819 4.16667 19.6993 3.76067 20.1379 3.49C20.5859 3.21 21.0993 3.07 21.6779 3.07C22.2193 3.07 22.6673 3.168 23.0219 3.364C23.3859 3.56 23.6566 3.85867 23.8339 4.26C24.0113 4.652 24.0999 5.15133 24.0999 5.758V9.51C24.0999 9.69667 24.0486 9.84133 23.9459 9.944C23.8526 10.0467 23.7173 10.098 23.5399 10.098C23.3533 10.098 23.2086 10.0467 23.1059 9.944C23.0126 9.84133 22.9659 9.69667 22.9659 9.51V5.828C22.9659 5.19333 22.8399 4.73133 22.5879 4.442C22.3453 4.14333 21.9533 3.994 21.4119 3.994C20.7866 3.994 20.2873 4.19 19.9139 4.582C19.5499 4.96467 19.3679 5.478 19.3679 6.122V9.51C19.3679 9.902 19.1766 10.098 18.7939 10.098ZM26.6032 2.888C26.5099 3.00933 26.4119 3.07933 26.3092 3.098C26.2065 3.10733 26.1179 3.08867 26.0432 3.042C25.9685 2.986 25.9265 2.90667 25.9172 2.804C25.9172 2.70133 25.9639 2.58933 26.0572 2.468C26.2065 2.272 26.3092 2.076 26.3652 1.88C26.4212 1.67467 26.4492 1.49267 26.4492 1.334L26.5052 1.614C26.2625 1.614 26.0665 1.544 25.9172 1.404C25.7772 1.25467 25.7072 1.068 25.7072 0.843999C25.7072 0.610666 25.7725 0.424 25.9032 0.284C26.0432 0.143999 26.2252 0.0739993 26.4492 0.0739993C26.6919 0.0739993 26.8832 0.157999 27.0232 0.325999C27.1632 0.484666 27.2332 0.718 27.2332 1.026C27.2332 1.222 27.2145 1.42733 27.1772 1.642C27.1399 1.84733 27.0745 2.05733 26.9812 2.272C26.8879 2.48667 26.7619 2.692 26.6032 2.888ZM31.8741 10.126C31.3421 10.126 30.8941 10.0327 30.5301 9.846C30.1754 9.65 29.9094 9.37 29.7321 9.006C29.5547 8.63267 29.4661 8.18 29.4661 7.648V4.078H28.5281C28.3694 4.078 28.2481 4.04067 28.1641 3.966C28.0801 3.882 28.0381 3.77 28.0381 3.63C28.0381 3.49 28.0801 3.38267 28.1641 3.308C28.2481 3.23333 28.3694 3.196 28.5281 3.196H29.4661V1.586C29.4661 1.39933 29.5174 1.25933 29.6201 1.166C29.7227 1.06333 29.8627 1.012 30.0401 1.012C30.2174 1.012 30.3527 1.06333 30.4461 1.166C30.5487 1.25933 30.6001 1.39933 30.6001 1.586V3.196H32.3641C32.5227 3.196 32.6441 3.23333 32.7281 3.308C32.8121 3.38267 32.8541 3.49 32.8541 3.63C32.8541 3.77 32.8121 3.882 32.7281 3.966C32.6441 4.04067 32.5227 4.078 32.3641 4.078H30.6001V7.536C30.6001 8.068 30.7121 8.474 30.9361 8.754C31.1601 9.02467 31.5241 9.16 32.0281 9.16C32.2054 9.16 32.3547 9.14133 32.4761 9.104C32.6067 9.06667 32.7141 9.048 32.7981 9.048C32.8821 9.03867 32.9521 9.06667 33.0081 9.132C33.0641 9.19733 33.0921 9.30933 33.0921 9.468C33.0921 9.58 33.0687 9.68267 33.0221 9.776C32.9847 9.86933 32.9147 9.93467 32.8121 9.972C32.7001 10.0093 32.5507 10.042 32.3641 10.07C32.1867 10.1073 32.0234 10.126 31.8741 10.126ZM38.208 10.098C38.0213 10.098 37.8813 10.0467 37.788 9.944C37.6947 9.84133 37.648 9.69667 37.648 9.51V0.606C37.648 0.419333 37.6947 0.279333 37.788 0.186C37.8813 0.0833331 38.0213 0.0319998 38.208 0.0319998C38.3853 0.0319998 38.5253 0.0833331 38.628 0.186C38.7307 0.279333 38.782 0.419333 38.782 0.606V4.708H38.6C38.796 4.16667 39.1133 3.76067 39.552 3.49C40 3.21 40.5133 3.07 41.092 3.07C41.6333 3.07 42.0813 3.168 42.436 3.364C42.8 3.56 43.0707 3.85867 43.248 4.26C43.4253 4.652 43.514 5.15133 43.514 5.758V9.51C43.514 9.69667 43.4627 9.84133 43.36 9.944C43.2667 10.0467 43.1313 10.098 42.954 10.098C42.7673 10.098 42.6227 10.0467 42.52 9.944C42.4267 9.84133 42.38 9.69667 42.38 9.51V5.828C42.38 5.19333 42.254 4.73133 42.002 4.442C41.7593 4.14333 41.3673 3.994 40.826 3.994C40.2007 3.994 39.7013 4.19 39.328 4.582C38.964 4.96467 38.782 5.478 38.782 6.122V9.51C38.782 9.902 38.5907 10.098 38.208 10.098ZM47.747 10.126C47.2803 10.126 46.8603 10.0373 46.487 9.86C46.123 9.67333 45.8337 9.42133 45.619 9.104C45.4043 8.78667 45.297 8.432 45.297 8.04C45.297 7.536 45.423 7.13933 45.675 6.85C45.9363 6.56067 46.361 6.35533 46.949 6.234C47.5463 6.11267 48.3583 6.052 49.385 6.052H50.015V6.794H49.399C48.643 6.794 48.0457 6.83133 47.607 6.906C47.1777 6.97133 46.8743 7.088 46.697 7.256C46.529 7.424 46.445 7.662 46.445 7.97C46.445 8.35267 46.5757 8.66533 46.837 8.908C47.1077 9.15067 47.4717 9.272 47.929 9.272C48.3023 9.272 48.629 9.18333 48.909 9.006C49.1983 8.82867 49.4223 8.586 49.581 8.278C49.749 7.97 49.833 7.61533 49.833 7.214V5.618C49.833 5.03933 49.7163 4.624 49.483 4.372C49.2497 4.11067 48.867 3.98 48.335 3.98C48.0083 3.98 47.6817 4.022 47.355 4.106C47.0283 4.19 46.683 4.32533 46.319 4.512C46.1883 4.57733 46.0763 4.60067 45.983 4.582C45.8897 4.554 45.815 4.50267 45.759 4.428C45.703 4.35333 45.6703 4.26933 45.661 4.176C45.6517 4.07333 45.6703 3.97533 45.717 3.882C45.773 3.78867 45.857 3.714 45.969 3.658C46.3797 3.45267 46.7857 3.30333 47.187 3.21C47.5883 3.11667 47.971 3.07 48.335 3.07C48.923 3.07 49.4083 3.168 49.791 3.364C50.1737 3.55067 50.4583 3.84 50.645 4.232C50.8317 4.61467 50.925 5.10933 50.925 5.716V9.51C50.925 9.69667 50.8783 9.84133 50.785 9.944C50.701 10.0467 50.575 10.098 50.407 10.098C50.2297 10.098 50.0943 10.0467 50.001 9.944C49.9077 9.84133 49.861 9.69667 49.861 9.51V8.418H49.987C49.9123 8.77267 49.7677 9.076 49.553 9.328C49.3477 9.58 49.091 9.776 48.783 9.916C48.475 10.056 48.1297 10.126 47.747 10.126ZM55.4945 10.098C55.3358 10.098 55.1958 10.056 55.0745 9.972C54.9532 9.87867 54.8505 9.73867 54.7665 9.552L52.3445 3.896C52.2792 3.756 52.2558 3.62533 52.2745 3.504C52.2932 3.38267 52.3492 3.28467 52.4425 3.21C52.5358 3.13533 52.6665 3.098 52.8345 3.098C52.9838 3.098 53.1005 3.13067 53.1845 3.196C53.2685 3.26133 53.3432 3.378 53.4085 3.546L55.7045 9.16H55.3265L57.6645 3.546C57.7298 3.378 57.8045 3.26133 57.8885 3.196C57.9725 3.13067 58.0938 3.098 58.2525 3.098C58.4018 3.098 58.5138 3.13533 58.5885 3.21C58.6725 3.28467 58.7192 3.38267 58.7285 3.504C58.7472 3.616 58.7285 3.742 58.6725 3.882L56.2225 9.552C56.1572 9.73867 56.0592 9.87867 55.9285 9.972C55.8072 10.056 55.6625 10.098 55.4945 10.098ZM63.1359 10.126C62.4172 10.126 61.7965 9.986 61.2739 9.706C60.7605 9.41667 60.3592 9.01067 60.0699 8.488C59.7899 7.96533 59.6499 7.34 59.6499 6.612C59.6499 5.90267 59.7899 5.28667 60.0699 4.764C60.3499 4.232 60.7325 3.81667 61.2179 3.518C61.7125 3.21933 62.2819 3.07 62.9259 3.07C63.3832 3.07 63.7939 3.14933 64.1579 3.308C64.5219 3.45733 64.8299 3.67667 65.0819 3.966C65.3432 4.25533 65.5392 4.60533 65.6699 5.016C65.8099 5.42667 65.8799 5.88867 65.8799 6.402C65.8799 6.55133 65.8379 6.66333 65.7539 6.738C65.6699 6.80333 65.5485 6.836 65.3899 6.836H60.5179V6.094H65.1239L64.8999 6.276C64.8999 5.772 64.8252 5.34733 64.6759 5.002C64.5265 4.64733 64.3072 4.37667 64.0179 4.19C63.7379 4.00333 63.3832 3.91 62.9539 3.91C62.4779 3.91 62.0719 4.022 61.7359 4.246C61.4092 4.46067 61.1619 4.764 60.9939 5.156C60.8259 5.53867 60.7419 5.98667 60.7419 6.5V6.584C60.7419 7.44267 60.9472 8.096 61.3579 8.544C61.7779 8.992 62.3705 9.216 63.1359 9.216C63.4532 9.216 63.7659 9.174 64.0739 9.09C64.3912 9.006 64.6992 8.866 64.9979 8.67C65.1285 8.586 65.2452 8.54867 65.3479 8.558C65.4599 8.558 65.5485 8.59067 65.6139 8.656C65.6792 8.712 65.7212 8.78667 65.7399 8.88C65.7679 8.964 65.7585 9.05733 65.7119 9.16C65.6745 9.26267 65.5952 9.35133 65.4739 9.426C65.1659 9.65 64.8019 9.82267 64.3819 9.944C63.9619 10.0653 63.5465 10.126 63.1359 10.126ZM73.2724 10.126C72.8057 10.126 72.3857 10.0373 72.0124 9.86C71.6484 9.67333 71.3591 9.42133 71.1444 9.104C70.9297 8.78667 70.8224 8.432 70.8224 8.04C70.8224 7.536 70.9484 7.13933 71.2004 6.85C71.4617 6.56067 71.8864 6.35533 72.4744 6.234C73.0717 6.11267 73.8837 6.052 74.9104 6.052H75.5404V6.794H74.9244C74.1684 6.794 73.5711 6.83133 73.1324 6.906C72.7031 6.97133 72.3997 7.088 72.2224 7.256C72.0544 7.424 71.9704 7.662 71.9704 7.97C71.9704 8.35267 72.1011 8.66533 72.3624 8.908C72.6331 9.15067 72.9971 9.272 73.4544 9.272C73.8277 9.272 74.1544 9.18333 74.4344 9.006C74.7237 8.82867 74.9477 8.586 75.1064 8.278C75.2744 7.97 75.3584 7.61533 75.3584 7.214V5.618C75.3584 5.03933 75.2417 4.624 75.0084 4.372C74.7751 4.11067 74.3924 3.98 73.8604 3.98C73.5337 3.98 73.2071 4.022 72.8804 4.106C72.5537 4.19 72.2084 4.32533 71.8444 4.512C71.7137 4.57733 71.6017 4.60067 71.5084 4.582C71.4151 4.554 71.3404 4.50267 71.2844 4.428C71.2284 4.35333 71.1957 4.26933 71.1864 4.176C71.1771 4.07333 71.1957 3.97533 71.2424 3.882C71.2984 3.78867 71.3824 3.714 71.4944 3.658C71.9051 3.45267 72.3111 3.30333 72.7124 3.21C73.1137 3.11667 73.4964 3.07 73.8604 3.07C74.4484 3.07 74.9337 3.168 75.3164 3.364C75.6991 3.55067 75.9837 3.84 76.1704 4.232C76.3571 4.61467 76.4504 5.10933 76.4504 5.716V9.51C76.4504 9.69667 76.4037 9.84133 76.3104 9.944C76.2264 10.0467 76.1004 10.098 75.9324 10.098C75.7551 10.098 75.6197 10.0467 75.5264 9.944C75.4331 9.84133 75.3864 9.69667 75.3864 9.51V8.418H75.5124C75.4377 8.77267 75.2931 9.076 75.0784 9.328C74.8731 9.58 74.6164 9.776 74.3084 9.916C74.0004 10.056 73.6551 10.126 73.2724 10.126ZM79.1142 10.098C78.9276 10.098 78.7876 10.0467 78.6942 9.944C78.6009 9.84133 78.5542 9.69667 78.5542 9.51V3.672C78.5542 3.48533 78.6009 3.34533 78.6942 3.252C78.7876 3.14933 78.9229 3.098 79.1002 3.098C79.2776 3.098 79.4129 3.14933 79.5062 3.252C79.6089 3.34533 79.6602 3.48533 79.6602 3.672V4.876L79.5062 4.708C79.7022 4.16667 80.0196 3.76067 80.4582 3.49C80.9062 3.21 81.4196 3.07 81.9982 3.07C82.5396 3.07 82.9876 3.168 83.3422 3.364C83.7062 3.56 83.9769 3.85867 84.1542 4.26C84.3316 4.652 84.4202 5.15133 84.4202 5.758V9.51C84.4202 9.69667 84.3689 9.84133 84.2662 9.944C84.1729 10.0467 84.0376 10.098 83.8602 10.098C83.6736 10.098 83.5289 10.0467 83.4262 9.944C83.3329 9.84133 83.2862 9.69667 83.2862 9.51V5.828C83.2862 5.19333 83.1602 4.73133 82.9082 4.442C82.6656 4.14333 82.2736 3.994 81.7322 3.994C81.1069 3.994 80.6076 4.19 80.2342 4.582C79.8702 4.96467 79.6882 5.478 79.6882 6.122V9.51C79.6882 9.902 79.4969 10.098 79.1142 10.098ZM92.2626 10.126C91.796 10.126 91.376 10.0373 91.0026 9.86C90.6386 9.67333 90.3493 9.42133 90.1346 9.104C89.92 8.78667 89.8126 8.432 89.8126 8.04C89.8126 7.536 89.9386 7.13933 90.1906 6.85C90.452 6.56067 90.8766 6.35533 91.4646 6.234C92.062 6.11267 92.874 6.052 93.9006 6.052H94.5306V6.794H93.9146C93.1586 6.794 92.5613 6.83133 92.1226 6.906C91.6933 6.97133 91.39 7.088 91.2126 7.256C91.0446 7.424 90.9606 7.662 90.9606 7.97C90.9606 8.35267 91.0913 8.66533 91.3526 8.908C91.6233 9.15067 91.9873 9.272 92.4446 9.272C92.818 9.272 93.1446 9.18333 93.4246 9.006C93.714 8.82867 93.938 8.586 94.0966 8.278C94.2646 7.97 94.3486 7.61533 94.3486 7.214V5.618C94.3486 5.03933 94.232 4.624 93.9986 4.372C93.7653 4.11067 93.3826 3.98 92.8506 3.98C92.524 3.98 92.1973 4.022 91.8706 4.106C91.544 4.19 91.1986 4.32533 90.8346 4.512C90.704 4.57733 90.592 4.60067 90.4986 4.582C90.4053 4.554 90.3306 4.50267 90.2746 4.428C90.2186 4.35333 90.186 4.26933 90.1766 4.176C90.1673 4.07333 90.186 3.97533 90.2326 3.882C90.2886 3.78867 90.3726 3.714 90.4846 3.658C90.8953 3.45267 91.3013 3.30333 91.7026 3.21C92.104 3.11667 92.4866 3.07 92.8506 3.07C93.4386 3.07 93.924 3.168 94.3066 3.364C94.6893 3.55067 94.974 3.84 95.1606 4.232C95.3473 4.61467 95.4406 5.10933 95.4406 5.716V9.51C95.4406 9.69667 95.394 9.84133 95.3006 9.944C95.2166 10.0467 95.0906 10.098 94.9226 10.098C94.7453 10.098 94.61 10.0467 94.5166 9.944C94.4233 9.84133 94.3766 9.69667 94.3766 9.51V8.418H94.5026C94.428 8.77267 94.2833 9.076 94.0686 9.328C93.8633 9.58 93.6066 9.776 93.2986 9.916C92.9906 10.056 92.6453 10.126 92.2626 10.126ZM100.428 10.126C99.7471 10.126 99.1591 9.97667 98.6645 9.678C98.1698 9.37933 97.7871 8.964 97.5165 8.432C97.2551 7.89067 97.1245 7.26533 97.1245 6.556C97.1245 6.01467 97.1991 5.52933 97.3485 5.1C97.4978 4.67067 97.7171 4.30667 98.0065 4.008C98.2958 3.7 98.6411 3.46667 99.0425 3.308C99.4531 3.14933 99.9151 3.07 100.428 3.07C100.764 3.07 101.114 3.12133 101.478 3.224C101.842 3.32667 102.174 3.504 102.472 3.756C102.566 3.82133 102.626 3.90067 102.654 3.994C102.682 4.08733 102.682 4.18067 102.654 4.274C102.626 4.358 102.58 4.43267 102.514 4.498C102.449 4.554 102.365 4.58667 102.262 4.596C102.169 4.60533 102.071 4.57267 101.968 4.498C101.726 4.31133 101.478 4.18067 101.226 4.106C100.974 4.03133 100.732 3.994 100.498 3.994C100.134 3.994 99.8171 4.05467 99.5465 4.176C99.2758 4.288 99.0471 4.45133 98.8605 4.666C98.6738 4.88067 98.5291 5.14667 98.4265 5.464C98.3331 5.78133 98.2865 6.15 98.2865 6.57C98.2865 7.382 98.4778 8.026 98.8605 8.502C99.2431 8.96867 99.7891 9.202 100.498 9.202C100.732 9.202 100.97 9.16467 101.212 9.09C101.464 9.01533 101.716 8.88467 101.968 8.698C102.071 8.62333 102.169 8.59067 102.262 8.6C102.356 8.60933 102.435 8.64667 102.5 8.712C102.566 8.768 102.608 8.84267 102.626 8.936C102.654 9.02933 102.654 9.12267 102.626 9.216C102.598 9.3 102.538 9.37467 102.444 9.44C102.146 9.68267 101.819 9.86 101.464 9.972C101.11 10.0747 100.764 10.126 100.428 10.126ZM106.772 10.126C106.091 10.126 105.503 9.97667 105.008 9.678C104.514 9.37933 104.131 8.964 103.86 8.432C103.599 7.89067 103.468 7.26533 103.468 6.556C103.468 6.01467 103.543 5.52933 103.692 5.1C103.842 4.67067 104.061 4.30667 104.35 4.008C104.64 3.7 104.985 3.46667 105.386 3.308C105.797 3.14933 106.259 3.07 106.772 3.07C107.108 3.07 107.458 3.12133 107.822 3.224C108.186 3.32667 108.518 3.504 108.816 3.756C108.91 3.82133 108.97 3.90067 108.998 3.994C109.026 4.08733 109.026 4.18067 108.998 4.274C108.97 4.358 108.924 4.43267 108.858 4.498C108.793 4.554 108.709 4.58667 108.606 4.596C108.513 4.60533 108.415 4.57267 108.312 4.498C108.07 4.31133 107.822 4.18067 107.57 4.106C107.318 4.03133 107.076 3.994 106.842 3.994C106.478 3.994 106.161 4.05467 105.89 4.176C105.62 4.288 105.391 4.45133 105.204 4.666C105.018 4.88067 104.873 5.14667 104.77 5.464C104.677 5.78133 104.63 6.15 104.63 6.57C104.63 7.382 104.822 8.026 105.204 8.502C105.587 8.96867 106.133 9.202 106.842 9.202C107.076 9.202 107.314 9.16467 107.556 9.09C107.808 9.01533 108.06 8.88467 108.312 8.698C108.415 8.62333 108.513 8.59067 108.606 8.6C108.7 8.60933 108.779 8.64667 108.844 8.712C108.91 8.768 108.952 8.84267 108.97 8.936C108.998 9.02933 108.998 9.12267 108.97 9.216C108.942 9.3 108.882 9.37467 108.788 9.44C108.49 9.68267 108.163 9.86 107.808 9.972C107.454 10.0747 107.108 10.126 106.772 10.126ZM113.06 10.126C112.397 10.126 111.823 9.98133 111.338 9.692C110.853 9.40267 110.475 8.99667 110.204 8.474C109.943 7.942 109.812 7.31667 109.812 6.598C109.812 6.05667 109.887 5.57133 110.036 5.142C110.185 4.70333 110.405 4.33 110.694 4.022C110.983 3.714 111.324 3.48067 111.716 3.322C112.117 3.154 112.565 3.07 113.06 3.07C113.723 3.07 114.297 3.21467 114.782 3.504C115.267 3.79333 115.641 4.204 115.902 4.736C116.173 5.25867 116.308 5.87933 116.308 6.598C116.308 7.13933 116.233 7.62467 116.084 8.054C115.935 8.48333 115.715 8.85667 115.426 9.174C115.137 9.482 114.791 9.72 114.39 9.888C113.998 10.0467 113.555 10.126 113.06 10.126ZM113.06 9.216C113.48 9.216 113.849 9.11333 114.166 8.908C114.483 8.70267 114.726 8.404 114.894 8.012C115.071 7.62 115.16 7.14867 115.16 6.598C115.16 5.74867 114.969 5.1 114.586 4.652C114.213 4.204 113.704 3.98 113.06 3.98C112.631 3.98 112.257 4.08267 111.94 4.288C111.632 4.484 111.389 4.778 111.212 5.17C111.044 5.55267 110.96 6.02867 110.96 6.598C110.96 7.438 111.151 8.08667 111.534 8.544C111.917 8.992 112.425 9.216 113.06 9.216ZM120.419 10.126C119.869 10.126 119.411 10.028 119.047 9.832C118.693 9.62667 118.422 9.32333 118.235 8.922C118.058 8.52067 117.969 8.02133 117.969 7.424V3.672C117.969 3.476 118.016 3.33133 118.109 3.238C118.212 3.14467 118.352 3.098 118.529 3.098C118.716 3.098 118.856 3.14467 118.949 3.238C119.052 3.33133 119.103 3.476 119.103 3.672V7.41C119.103 8.00733 119.225 8.45533 119.467 8.754C119.719 9.04333 120.111 9.188 120.643 9.188C121.222 9.188 121.693 8.992 122.057 8.6C122.421 8.208 122.603 7.69467 122.603 7.06V3.672C122.603 3.476 122.65 3.33133 122.743 3.238C122.846 3.14467 122.991 3.098 123.177 3.098C123.355 3.098 123.49 3.14467 123.583 3.238C123.686 3.33133 123.737 3.476 123.737 3.672V9.51C123.737 9.902 123.555 10.098 123.191 10.098C123.014 10.098 122.874 10.0467 122.771 9.944C122.678 9.84133 122.631 9.69667 122.631 9.51V8.236L122.813 8.432C122.627 8.98267 122.319 9.40267 121.889 9.692C121.469 9.98133 120.979 10.126 120.419 10.126ZM126.419 10.098C126.232 10.098 126.092 10.0467 125.999 9.944C125.906 9.84133 125.859 9.69667 125.859 9.51V3.672C125.859 3.48533 125.906 3.34533 125.999 3.252C126.092 3.14933 126.228 3.098 126.405 3.098C126.582 3.098 126.718 3.14933 126.811 3.252C126.914 3.34533 126.965 3.48533 126.965 3.672V4.876L126.811 4.708C127.007 4.16667 127.324 3.76067 127.763 3.49C128.211 3.21 128.724 3.07 129.303 3.07C129.844 3.07 130.292 3.168 130.647 3.364C131.011 3.56 131.282 3.85867 131.459 4.26C131.636 4.652 131.725 5.15133 131.725 5.758V9.51C131.725 9.69667 131.674 9.84133 131.571 9.944C131.478 10.0467 131.342 10.098 131.165 10.098C130.978 10.098 130.834 10.0467 130.731 9.944C130.638 9.84133 130.591 9.69667 130.591 9.51V5.828C130.591 5.19333 130.465 4.73133 130.213 4.442C129.97 4.14333 129.578 3.994 129.037 3.994C128.412 3.994 127.912 4.19 127.539 4.582C127.175 4.96467 126.993 5.478 126.993 6.122V9.51C126.993 9.902 126.802 10.098 126.419 10.098ZM136.546 10.126C136.014 10.126 135.566 10.0327 135.202 9.846C134.847 9.65 134.581 9.37 134.404 9.006C134.227 8.63267 134.138 8.18 134.138 7.648V4.078H133.2C133.041 4.078 132.92 4.04067 132.836 3.966C132.752 3.882 132.71 3.77 132.71 3.63C132.71 3.49 132.752 3.38267 132.836 3.308C132.92 3.23333 133.041 3.196 133.2 3.196H134.138V1.586C134.138 1.39933 134.189 1.25933 134.292 1.166C134.395 1.06333 134.535 1.012 134.712 1.012C134.889 1.012 135.025 1.06333 135.118 1.166C135.221 1.25933 135.272 1.39933 135.272 1.586V3.196H137.036C137.195 3.196 137.316 3.23333 137.4 3.308C137.484 3.38267 137.526 3.49 137.526 3.63C137.526 3.77 137.484 3.882 137.4 3.966C137.316 4.04067 137.195 4.078 137.036 4.078H135.272V7.536C135.272 8.068 135.384 8.474 135.608 8.754C135.832 9.02467 136.196 9.16 136.7 9.16C136.877 9.16 137.027 9.14133 137.148 9.104C137.279 9.06667 137.386 9.048 137.47 9.048C137.554 9.03867 137.624 9.06667 137.68 9.132C137.736 9.19733 137.764 9.30933 137.764 9.468C137.764 9.58 137.741 9.68267 137.694 9.776C137.657 9.86933 137.587 9.93467 137.484 9.972C137.372 10.0093 137.223 10.042 137.036 10.07C136.859 10.1073 136.695 10.126 136.546 10.126ZM143.832 12.618C143.692 12.618 143.58 12.5807 143.496 12.506C143.412 12.4313 143.361 12.3287 143.342 12.198C143.333 12.0767 143.356 11.9507 143.412 11.82L144.378 9.65V10.14L141.69 3.896C141.634 3.756 141.615 3.62533 141.634 3.504C141.653 3.38267 141.709 3.28467 141.802 3.21C141.895 3.13533 142.026 3.098 142.194 3.098C142.343 3.098 142.46 3.13067 142.544 3.196C142.628 3.26133 142.703 3.378 142.768 3.546L145.064 9.174H144.686L147.01 3.546C147.085 3.378 147.164 3.26133 147.248 3.196C147.332 3.13067 147.453 3.098 147.612 3.098C147.761 3.098 147.873 3.13533 147.948 3.21C148.032 3.28467 148.079 3.38267 148.088 3.504C148.107 3.616 148.088 3.742 148.032 3.882L144.448 12.17C144.373 12.338 144.289 12.4547 144.196 12.52C144.112 12.5853 143.991 12.618 143.832 12.618ZM152.482 10.126C151.763 10.126 151.142 9.986 150.62 9.706C150.106 9.41667 149.705 9.01067 149.416 8.488C149.136 7.96533 148.996 7.34 148.996 6.612C148.996 5.90267 149.136 5.28667 149.416 4.764C149.696 4.232 150.078 3.81667 150.564 3.518C151.058 3.21933 151.628 3.07 152.272 3.07C152.729 3.07 153.14 3.14933 153.504 3.308C153.868 3.45733 154.176 3.67667 154.428 3.966C154.689 4.25533 154.885 4.60533 155.016 5.016C155.156 5.42667 155.226 5.88867 155.226 6.402C155.226 6.55133 155.184 6.66333 155.1 6.738C155.016 6.80333 154.894 6.836 154.736 6.836H149.864V6.094H154.47L154.246 6.276C154.246 5.772 154.171 5.34733 154.022 5.002C153.872 4.64733 153.653 4.37667 153.364 4.19C153.084 4.00333 152.729 3.91 152.3 3.91C151.824 3.91 151.418 4.022 151.082 4.246C150.755 4.46067 150.508 4.764 150.34 5.156C150.172 5.53867 150.088 5.98667 150.088 6.5V6.584C150.088 7.44267 150.293 8.096 150.704 8.544C151.124 8.992 151.716 9.216 152.482 9.216C152.799 9.216 153.112 9.174 153.42 9.09C153.737 9.006 154.045 8.866 154.344 8.67C154.474 8.586 154.591 8.54867 154.694 8.558C154.806 8.558 154.894 8.59067 154.96 8.656C155.025 8.712 155.067 8.78667 155.086 8.88C155.114 8.964 155.104 9.05733 155.058 9.16C155.02 9.26267 154.941 9.35133 154.82 9.426C154.512 9.65 154.148 9.82267 153.728 9.944C153.308 10.0653 152.892 10.126 152.482 10.126ZM159.597 10.126C159.065 10.126 158.617 10.0327 158.253 9.846C157.898 9.65 157.632 9.37 157.455 9.006C157.277 8.63267 157.189 8.18 157.189 7.648V4.078H156.251C156.092 4.078 155.971 4.04067 155.887 3.966C155.803 3.882 155.761 3.77 155.761 3.63C155.761 3.49 155.803 3.38267 155.887 3.308C155.971 3.23333 156.092 3.196 156.251 3.196H157.189V1.586C157.189 1.39933 157.24 1.25933 157.343 1.166C157.445 1.06333 157.585 1.012 157.763 1.012C157.94 1.012 158.075 1.06333 158.169 1.166C158.271 1.25933 158.323 1.39933 158.323 1.586V3.196H160.087C160.245 3.196 160.367 3.23333 160.451 3.308C160.535 3.38267 160.577 3.49 160.577 3.63C160.577 3.77 160.535 3.882 160.451 3.966C160.367 4.04067 160.245 4.078 160.087 4.078H158.323V7.536C158.323 8.068 158.435 8.474 158.659 8.754C158.883 9.02467 159.247 9.16 159.751 9.16C159.928 9.16 160.077 9.14133 160.199 9.104C160.329 9.06667 160.437 9.048 160.521 9.048C160.605 9.03867 160.675 9.06667 160.731 9.132C160.787 9.19733 160.815 9.30933 160.815 9.468C160.815 9.58 160.791 9.68267 160.745 9.776C160.707 9.86933 160.637 9.93467 160.535 9.972C160.423 10.0093 160.273 10.042 160.087 10.07C159.909 10.1073 159.746 10.126 159.597 10.126ZM163.651 7.48C163.529 7.48 163.436 7.44267 163.371 7.368C163.305 7.284 163.273 7.172 163.273 7.032C163.273 6.70533 163.31 6.402 163.385 6.122C163.469 5.83267 163.595 5.53867 163.763 5.24C163.94 4.94133 164.178 4.61933 164.477 4.274C164.71 3.994 164.897 3.74667 165.037 3.532C165.177 3.31733 165.275 3.112 165.331 2.916C165.396 2.71067 165.429 2.50533 165.429 2.3C165.429 1.908 165.289 1.6 165.009 1.376C164.729 1.14267 164.341 1.026 163.847 1.026C163.417 1.026 163.021 1.09133 162.657 1.222C162.302 1.34333 161.957 1.53 161.621 1.782C161.481 1.87533 161.35 1.922 161.229 1.922C161.117 1.922 161.023 1.88933 160.949 1.824C160.874 1.75867 160.823 1.67467 160.795 1.572C160.776 1.46933 160.79 1.362 160.837 1.25C160.893 1.138 160.986 1.03533 161.117 0.942C161.481 0.652666 161.91 0.424 162.405 0.255999C162.899 0.0879994 163.399 0.00399935 163.903 0.00399935C164.435 0.00399935 164.901 0.0973329 165.303 0.284C165.713 0.461333 166.031 0.718 166.255 1.054C166.479 1.38067 166.591 1.768 166.591 2.216C166.591 2.50533 166.549 2.78533 166.465 3.056C166.381 3.31733 166.245 3.58333 166.059 3.854C165.881 4.12467 165.629 4.43267 165.303 4.778C165.013 5.07667 164.78 5.35667 164.603 5.618C164.425 5.87 164.29 6.11733 164.197 6.36C164.113 6.59333 164.057 6.84067 164.029 7.102C164.019 7.214 163.982 7.30733 163.917 7.382C163.851 7.44733 163.763 7.48 163.651 7.48ZM163.637 10.056C163.403 10.056 163.212 9.986 163.063 9.846C162.923 9.69667 162.853 9.51 162.853 9.286C162.853 9.062 162.923 8.88 163.063 8.74C163.212 8.59067 163.403 8.516 163.637 8.516C163.87 8.516 164.052 8.59067 164.183 8.74C164.323 8.88 164.393 9.062 164.393 9.286C164.393 9.51 164.323 9.69667 164.183 9.846C164.052 9.986 163.87 10.056 163.637 10.056Z" fill="black"/>
</svg>
